<?xml version="1.0" encoding="utf-8"?>
<!-- Generator: Adobe Illustrator 23.1.0, SVG Export Plug-In . SVG Version: 6.00 Build 0)  -->
<svg version="1.1" id="Layer_1" xmlns="http://www.w3.org/2000/svg" xmlns:xlink="http://www.w3.org/1999/xlink" x="0px" y="0px"
	 viewBox="0 0 1004.5 176.7" enable-background="new 0 0 1004.5 176.7" xml:space="preserve">
<polygon fill="#FF8300" points="35.6,138.5 8.5,41.5 24.2,41.5 45.6,123.3 68.4,41.5 85.6,41.5 108.2,123.3 129.7,41.5 144.2,41.5 
	117.3,138.5 99.3,138.5 76.6,56.4 53.8,138.5 "/>
<path fill="#FF8300" d="M193,138.5l-0.4-11.5c-4.5,8.1-12.4,13.1-22.8,13.1c-13.1,0-24.1-6.4-24.1-21.5c0-18.9,17-24.7,38.4-24.7
	c1.9,0,6,0,8.1,0.1v-3.1c0-10.6-5.1-16.4-16.6-16.4c-7.4,0-14.8,1.7-21.4,5.8l-0.9-11.2c6.8-2.8,16.1-4.8,23.6-4.8
	c18.8,0,29.5,8,29.5,27.6v30.4c0,6.3,0.3,11.1,0.9,16.1H193z M188.2,102.8c-14.4,0-28.2,2-28.2,14.8c0,8.3,5.5,11.8,13.2,11.8
	c13.2,0,18.9-10.5,18.9-22.7v-3.9H188.2z"/>
<path fill="#FF8300" d="M219.6,138.5v-56c0-5.7-0.1-11.1-0.7-16.7h13.7l0.4,14c3.1-7.7,10.3-15.4,19.8-15.4c2.2,0,3.9,0,6.1,0.6
	l-0.7,13.8c-1.9-0.7-3.8-0.9-6-0.9c-14.4,0-18,14.8-18,26v34.6H219.6z"/>
<path fill="#FF8300" d="M267.9,138.5v-56c0-5.7-0.1-11.1-0.7-16.7h13.7l0.4,14c3.1-7.7,10.3-15.4,19.8-15.4c2.2,0,3.9,0,6.1,0.6
	l-0.7,13.8c-1.9-0.7-3.8-0.9-6-0.9c-14.4,0-18,14.8-18,26v34.6H267.9z"/>
<path fill="#FF8300" d="M356.5,138.5L356,127c-4.5,8.1-12.4,13.1-22.8,13.1c-13.1,0-24.1-6.4-24.1-21.5c0-18.9,17-24.7,38.4-24.7
	c1.9,0,6,0,8.1,0.1v-3.1c0-10.6-5.1-16.4-16.6-16.4c-7.4,0-14.8,1.7-21.4,5.8l-0.9-11.2c6.8-2.8,16.1-4.8,23.6-4.8
	c18.8,0,29.5,8,29.5,27.6v30.4c0,6.3,0.3,11.1,0.9,16.1H356.5z M351.6,102.8c-14.4,0-28.2,2-28.2,14.8c0,8.3,5.5,11.8,13.2,11.8
	c13.2,0,18.9-10.5,18.9-22.7v-3.9H351.6z"/>
<path fill="#FF8300" d="M383.1,138.9v-56c0-5.7-0.1-11.1-0.7-16.7H396l0.4,12.5c5.1-9.3,12.9-14,23.6-14c18,0,24.4,11.3,24.4,28.2
	v46h-14.7V96c0-10.2-2-19.9-14.4-19.9c-13.5,0-17.7,11.8-17.7,23.3v39.6H383.1z"/>
<path fill="#FF8300" d="M495.8,138c-4.5,1.6-9.5,2.5-14,2.5c-15.6,0-18.5-10.8-18.5-24.9v-39H450V66.1h13.4V50.4l14.7-4.8v20.5h16.3
	v10.5h-16.3v40.7c0,6.3,1.6,11.6,9,11.6c2.8,0,5.4-0.6,8-1.7L495.8,138z"/>
<path fill="#FF8300" d="M504.7,159.7c2.5,0.7,4.8,1,7.1,1c7.4,0,10.5-4.9,13.5-14.7l1.5-4.5l-26-75.4h15.9l17.7,59.8l17.5-59.8h14.8
	l-27.8,82.5c-3.9,11.2-9.2,23.3-24.4,23.3c-3.8,0-7.3-0.3-10.6-1L504.7,159.7z"/>
<polygon fill="#070808" points="594,138.9 571.9,66.1 587.1,66.1 603.9,126.5 620.9,66.1 638.3,66.1 655.4,126.5 671.9,66.1 
	685.8,66.1 664.1,138.9 646,138.9 629.2,78.4 612,138.9 "/>
<path fill="#070808" d="M694.5,37H709v14.1h-14.5V37z M694.5,66.1H709v72.7h-14.5V66.1z"/>
<path fill="#070808" d="M721,125.8c6.3,3.1,11.9,4.4,18.8,4.4c7.7,0,13.8-2.9,13.8-10.9c0-16.4-32.6-11.5-32.6-34.3
	c0-15.4,13.7-20.2,26.5-20.2c6.5,0,12.2,0.9,17.9,3.1l-0.9,10.6c-5.4-2.2-10.8-3.3-16.3-3.3c-6.4,0-13.1,1.6-13.1,9.2
	c0,14,32.9,9.5,32.9,34.2c0,15.9-14.4,22.1-27.8,22.1c-7.1,0-12.9-0.7-20.1-3.1L721,125.8z"/>
<path fill="#070808" d="M790.2,105.7c0,13.4,8.3,24.6,24.3,24.6c6.5,0,13.8-1.5,19.6-4.5l0.9,10.8c-6.8,2.8-14.5,3.9-22.5,3.9
	c-24.6,0-37.2-15.6-37.2-38.3c0-19.9,12.4-37.5,33.3-37.5c22.8,0,30.4,16.1,30.4,36.7v4.4H790.2z M825,96.7c0-11.1-3.2-22-16.3-22
	c-12.4,0-18.2,11.5-18.6,22H825z"/>
<g>
	<path fill="#CD2027" d="M932.4,96.2c2.6,7.6,10.1,13.5,13,21.1c2.5,6.9,5.6,13.7,6.3,20.9c0.9,7.4,0.4,17.3-5.8,21.7
		c-3.9,2.8-10.4,4-15.1,4.8c-6.2,1.3-12.8,0.9-19.1,0.5c-8.9-0.6-18.1,0.8-24.4-7c-7.2-8.8-13.1-18.5-8-30c5.7-13.3,17.8-23.2,27-34
		c2.8-3.5,6-6.8,8.7-10"/>
</g>
<g>
	<path fill="#DF1F26" d="M929.2,98.7c2.2,7,9,12.4,11.5,19.6c2.2,6.4,5,12.7,5.4,19.4c0.8,6.9,0.1,16.1-5.5,20.2
		c-3.6,2.6-9.5,3.7-13.8,4.5c-5.6,1.3-11.6,0.8-17.3,0.5c-8.1-0.5-16.5,0.8-22-6.4c-6.5-8.1-11.7-17.1-6.9-27.8
		c5.4-12.4,16.4-21.6,25-31.6c2.6-3.2,5.5-6.3,8-9.3"/>
</g>
<g>
	<path fill="#CD2027" d="M921.2,98.6c-6.7,4.4-10.4,13.2-17.1,18c-6,4.2-11.7,9-18.6,11.5c-6.9,2.8-16.6,4.8-22.5,0
		c-3.7-3.1-6.5-9.1-8.5-13.3c-2.9-5.6-4.1-12.1-5.4-18.3c-1.7-8.8-5.4-17.3,0.5-25.3c6.6-9.2,14.5-17.5,26.9-15.5
		c14.3,2.1,27,11.2,39.8,17.4c4.1,1.8,8.1,4,11.9,5.8"/>
</g>
<g>
	<path fill="#DF1F26" d="M918.4,100.6c-6.5,3.5-10.6,11.2-17.1,14.9c-5.9,3.3-11.5,7.2-18.1,8.9c-6.6,2-15.8,3.1-20.9-1.7
		c-3.2-3.1-5.4-8.7-7-12.7c-2.3-5.3-3-11.2-3.7-16.9c-1-8.1-3.8-16.1,2.2-22.8c6.8-7.9,14.7-14.7,26-11.9
		c13.2,3,24.2,12.1,35.7,18.7c3.6,2,7.3,4.2,10.6,6.1"/>
</g>
<g>
	<path fill="#CD2027" d="M916.1,88.4c-6-5.3-15.4-6.6-21.8-11.9c-5.6-4.7-11.7-9-15.9-15.1c-4.5-5.9-8.9-14.8-5.8-21.7
		c2.1-4.3,7.1-8.7,10.7-11.7c4.7-4.3,10.6-7.1,16.3-9.9c8-3.9,15.3-9.7,24.6-6c10.6,4,20.6,9.5,21.9,22c1.7,14.4-3.9,28.9-6.5,42.9
		c-0.7,4.4-1.8,8.9-2.6,13"/>
</g>
<g>
	<path fill="#DF1F26" d="M914,90.7c-5.4-5.1-13.9-6.5-19.6-11.5c-5-4.5-10.5-8.7-14.2-14.4c-4-5.6-7.9-14-5-20.3
		c1.9-4,6.5-7.9,9.8-10.6c4.3-3.8,9.7-6.4,14.9-8.8c7.3-3.5,14-8.7,22.4-5.1c9.6,4,18.6,9.3,19.5,20.9c1.3,13.4-3.8,26.8-6.5,39.7
		c-0.7,4.1-1.7,8.2-2.5,12"/>
</g>
<g>
	<path fill="#CD2027" d="M924.5,80.8c3.6-7.2,2.4-16.6,5.9-24.1c3.1-6.6,5.7-13.6,10.5-19.2c4.6-5.9,12-12.5,19.5-11.2
		c4.7,0.9,10.2,4.6,14,7.3c5.3,3.4,9.6,8.5,13.8,13.2c5.9,6.7,13.3,12.3,12.2,22.2c-1.1,11.3-3.9,22.4-15.6,26.8
		c-13.5,5.3-29,3.7-43.1,4.7c-4.5,0.4-9,0.6-13.2,0.9"/>
</g>
<g>
	<path fill="#DF1F26" d="M923.2,82.8c3.6-6.5,2.8-15.1,6.3-21.8c3.2-6,5.8-12.3,10.4-17.3c4.5-5.3,11.6-11.2,18.4-9.9
		c4.4,0.9,9.3,4.3,12.8,6.9c4.8,3.2,8.6,7.8,12.3,12.2c5.2,6.2,11.9,11.4,10.5,20.4c-1.5,10.3-4.4,20.3-15.4,24.1
		c-12.6,4.6-26.9,3-40.1,3.6c-4.1,0.3-8.4,0.4-12.2,0.6"/>
</g>
<g>
	<path fill="#CD2027" d="M933,84.8c8-0.5,15.6-6.3,23.8-7.1c7.3-0.6,14.7-1.9,21.9-0.6c7.4,1,16.8,4.1,19.5,11.2
		c1.7,4.5,1.2,11.1,0.8,15.8c-0.3,6.3-2.5,12.6-4.4,18.5c-2.9,8.5-3.9,17.7-13,21.7c-10.4,4.7-21.3,7.9-31,0
		c-11.4-9-17.8-23.1-25.9-34.9c-2.6-3.6-5-7.5-7.4-11"/>
</g>
<g>
	<path fill="#DF1F26" d="M930.5,87.8c7.4-0.4,14.3-5.6,21.9-6.2c6.7-0.5,13.5-1.6,20.2-0.4c6.8,1,15.6,3.9,18.1,10.4
		c1.6,4.1,1.2,10.2,0.9,14.5c-0.2,5.8-2.1,11.4-3.9,16.9c-2.5,7.7-3.4,16.1-11.8,19.7c-9.5,4.2-19.5,7-28.6-0.3
		c-10.6-8.3-16.7-21.3-24.3-32.1c-2.4-3.3-4.8-6.9-7-10.1"/>
</g>
<g>
	<g>
		<path fill="#191918" d="M918.4,66c0,0,3,1.9,6.8-0.1c3.8-2,12.6-1,13.3,5.6c0.7,6.5,4.3,3.4,6.1,3.2c1.8-0.2,9.5,6.8,5.1,12
			c-4.4,5.2-1.7,2,0.1,4.4c1.8,2.4,3.7,12.1-5,13.4c-8.7,1.4-2.7,2.9-2.2,3.9c0.4,1-3.3,13.2-10.2,8.8c-6.8-4.4-5.7-2.9-10.6-1.3
			c-4.9,1.6-10.6-3-11.4-8.2c0,0-0.6-1.7-4-1.5c-3.4,0.3-8.8-4.8-4.9-10.2c0,0,2-0.5-1.1-4.6c-3.1-4.1-3.8-11.8,3-13.8
			c0,0,2.7,0.4,2.6-2.6C905.8,71.9,907.6,61.3,918.4,66z"/>
	</g>
	<g>
		<g>
			<path fill="#9B5A25" d="M929.3,79.2c-0.6,0.9-1.8,1.1-2.6,0.5c-0.9-0.6-1.1-1.7-0.6-2.6c0.6-0.9,1.7-1.1,2.6-0.6
				C929.6,77.1,929.9,78.3,929.3,79.2z"/>
		</g>
		<g>
			<path fill="#9B5A25" d="M936.5,86.3c-0.6,0.9-1.8,1.1-2.6,0.6c-0.9-0.6-1.1-1.7-0.6-2.6c0.6-0.9,1.7-1.1,2.6-0.5
				C936.8,84.3,937.1,85.5,936.5,86.3z"/>
		</g>
		<g>
			<path fill="#9B5A25" d="M925.9,88.1c-0.6,0.9-1.8,1.1-2.6,0.6c-0.9-0.6-1.1-1.8-0.6-2.6c0.6-0.9,1.7-1.1,2.6-0.5
				C926.2,86,926.5,87.2,925.9,88.1z"/>
		</g>
		<g>
			<path fill="#9B5A25" d="M917.1,74.8c-0.6,0.9-1.7,1.1-2.6,0.5c-0.9-0.6-1.1-1.7-0.5-2.6c0.6-0.9,1.7-1.1,2.6-0.6
				C917.5,72.8,917.7,74,917.1,74.8z"/>
		</g>
		<g>
			<path fill="#9B5A25" d="M912.6,85.5c-0.6,0.9-1.8,1.1-2.6,0.6c-0.9-0.6-1.1-1.7-0.5-2.6s1.7-1.1,2.6-0.6
				C912.9,83.4,913.2,84.6,912.6,85.5z"/>
		</g>
		<g>
			<path fill="#9B5A25" d="M919.4,83.5c-0.6,0.9-1.8,1.1-2.6,0.6c-0.9-0.6-1.1-1.8-0.5-2.6c0.6-0.9,1.7-1.1,2.6-0.5
				C919.8,81.5,920,82.7,919.4,83.5z"/>
		</g>
		<g>
			<path fill="#9B5A25" d="M922,97.7c-0.6,0.9-1.7,1.1-2.6,0.5c-0.9-0.6-1.1-1.7-0.6-2.6c0.6-0.9,1.7-1.1,2.6-0.6
				C922.4,95.6,922.6,96.8,922,97.7z"/>
		</g>
		<g>
			<path fill="#9B5A25" d="M932.9,95.3c-0.6,0.9-1.8,1.1-2.6,0.6c-0.9-0.6-1.1-1.7-0.5-2.6c0.6-0.9,1.7-1.1,2.6-0.6
				C933.2,93.2,933.5,94.4,932.9,95.3z"/>
		</g>
		<g>
			<path fill="#9B5A25" d="M946.5,97.4c-0.6,0.9-1.7,1.1-2.6,0.6s-1.1-1.7-0.6-2.6s1.8-1.1,2.6-0.6S947.1,96.6,946.5,97.4z"/>
		</g>
		<g>
			<path fill="#9B5A25" d="M941.9,83.4c-0.6,0.9-1.7,1.1-2.6,0.5c-0.9-0.6-1.1-1.7-0.6-2.6c0.6-0.9,1.8-1.1,2.6-0.6
				C942.3,81.3,942.5,82.5,941.9,83.4z"/>
		</g>
		<g>
			<path fill="#9B5A25" d="M928.8,70.4c-0.6,0.9-1.7,1.1-2.6,0.5c-0.9-0.6-1.1-1.7-0.6-2.6c0.6-0.9,1.8-1.1,2.6-0.6
				C929.1,68.3,929.3,69.5,928.8,70.4z"/>
		</g>
		<g>
			<path fill="#9B5A25" d="M936.7,103.5c-0.6,0.9-1.8,1.1-2.6,0.6s-1.1-1.8-0.6-2.6s1.8-1.1,2.6-0.5
				C937.1,101.4,937.3,102.6,936.7,103.5z"/>
		</g>
		<g>
			<path fill="#9B5A25" d="M924.9,109.7c-0.6,0.9-1.7,1.1-2.6,0.5c-0.9-0.6-1.1-1.7-0.6-2.6c0.6-0.9,1.8-1.1,2.6-0.6
				C925.2,107.7,925.5,108.8,924.9,109.7z"/>
		</g>
		<g>
			<path fill="#9B5A25" d="M911.8,99c-0.6,0.9-1.7,1.1-2.6,0.6c-0.9-0.6-1.1-1.8-0.6-2.6s1.8-1.1,2.6-0.6
				C912.1,97,912.4,98.1,911.8,99z"/>
		</g>
	</g>
</g>
</svg>
